<svg width="667" height="201" viewBox="0 0 667 201" fill="none" xmlns="http://www.w3.org/2000/svg">
<g clip-path="url(#clip0_1_86)">
<path d="M26.424 182.459C16.9944 182.459 9.03144 179.32 4.57589 173.837C0.611073 168.95 -0.583371 162.561 1.02959 154.837L20.3759 61.7444C26.5722 29.6037 49.424 18.5463 61.8296 18.5463H667V168.804L658.067 182.459H26.424Z" fill="#4CB748"/>
<path d="M667 18.5426H61.65C50.4148 18.5426 41.0481 28.6093 38.487 41.6519L17.063 144.739C13.3463 162.589 26.9556 168.789 39.5463 168.789H667V18.5426Z" fill="#006FBA"/>
<path fill-rule="evenodd" clip-rule="evenodd" d="M92.0462 56.7111C93.6832 57.9519 95.4518 59.2593 97.2036 60.563C97.4036 60.7148 97.8462 61.0074 97.8814 61.163C97.9999 61.513 97.8814 62.3463 97.8814 62.8981C97.8814 80.6704 97.8814 98.9019 97.8814 116.531C95.9592 116.531 94.024 116.531 92.1017 116.531C91.9832 99.2704 92.0036 81.7463 92.0036 64.2444C92.0036 61.763 91.8777 59.2333 92.0036 56.7741C92.0036 56.7426 91.9443 56.6574 92.0462 56.7111Z" fill="white"/>
<path fill-rule="evenodd" clip-rule="evenodd" d="M105.985 116.53C104.041 116.53 102.096 116.53 100.141 116.53C100.141 99.0463 100.141 80.6685 100.141 62.8963C100.141 62.287 100.03 61.5852 100.141 61.1704C100.189 60.9574 100.602 60.7796 100.835 60.5963C102.518 59.3333 104.448 57.8185 106.03 56.7093C106.056 76.7611 105.985 96.5278 105.985 116.53Z" fill="white"/>
<path fill-rule="evenodd" clip-rule="evenodd" d="M75.1796 108.709C71.8759 104.778 69.7092 99.7574 69.4259 92.8981C69.2592 89.487 69.9944 86.2537 70.9203 83.6444C71.8722 80.9537 73.2407 78.6907 74.8277 76.7648C78.124 72.7944 82.5944 70.1278 88.7036 69.0241C85.0092 68.3574 80.2814 68.1611 76.3407 68.6593C71.3629 69.2944 67.0888 70.9574 63.7629 73.2926C59.7147 76.1241 56.5259 79.8741 54.7073 84.9463C53.4944 88.3833 52.9629 92.813 53.7648 97.0111C54.4907 100.754 56.0499 103.863 58.0907 106.456C60.1314 109.057 62.6314 111.204 65.574 112.77C71.4796 115.941 79.6388 117.496 88.8796 116.563C82.9759 115.317 78.4999 112.683 75.1796 108.709ZM64.7907 106.517C62.1536 102.981 60.0129 98.25 59.861 92.5259C59.6777 86.3148 61.5777 81.6981 64.4555 78.263C67.3647 74.75 71.2925 72.6148 76.4314 71.3296C76.4777 71.3167 76.4888 71.3167 76.5166 71.2852C76.5907 71.3296 76.3759 71.4148 76.2703 71.4778C72.5444 73.4111 69.4907 75.8482 67.0444 79.1333C64.5814 82.4815 62.8685 86.8 62.8685 92.437C62.8685 97.9556 64.6499 102.43 66.8907 105.889C69.1851 109.45 72.2296 112.226 76.5185 113.693C71.2481 112.88 67.4499 110.1 64.7907 106.517Z" fill="white"/>
<path fill-rule="evenodd" clip-rule="evenodd" d="M142.765 83.6222C141.383 80.3093 139.283 77.5426 136.868 75.3593C134.391 73.1278 131.433 71.3537 127.915 70.1389C124.431 68.9259 120.281 68.1611 115.498 68.387C113.324 68.4796 111.278 68.6981 109.304 69.063C115.424 70.0944 119.881 72.7796 123.198 76.7296C124.798 78.637 126.143 80.9537 127.076 83.6222C127.961 86.1463 128.77 89.4389 128.602 92.8704C128.291 99.7259 126.183 104.778 122.839 108.681C119.491 112.613 115.105 115.365 109.148 116.561C123.6 117.85 134.6 113.928 140.411 105.835C142.389 103.048 143.911 99.8056 144.435 95.6889C145.028 91.2148 144.2 86.9574 142.765 83.6222ZM136.585 100.339C135.722 102.689 134.576 104.719 133.239 106.493C130.476 110.148 126.8 112.843 121.513 113.731C125.811 112.211 128.804 109.443 131.157 105.924C133.318 102.63 135.146 97.9074 135.146 92.5259C135.146 86.8574 133.511 82.6037 131.043 79.2093C129.268 76.7333 126.95 74.5852 124.289 72.9222C123.378 72.3352 122.376 71.7444 121.424 71.3296C121.4 71.2852 121.431 71.2852 121.457 71.2852C126.507 72.5167 130.622 74.7093 133.522 78.1685C136.396 81.5981 138.355 86.1815 138.191 92.4704C138.1 95.4185 137.443 98.0315 136.585 100.339Z" fill="white"/>
<path d="M190.124 74.8296C188.502 74.4037 186.652 74.1944 184.463 74.1944C182.581 74.1944 180.483 74.5463 178.228 75.2389C175.948 75.9407 173.709 77.0833 171.58 78.6315C169.413 80.1741 167.552 82.3037 166.037 84.9444C164.518 87.6074 163.633 90.8241 163.4 94.487C163.4 97.4537 163.965 100.289 165.074 102.943C166.192 105.585 167.744 107.896 169.696 109.813C171.67 111.748 173.937 113.259 176.437 114.319C178.972 115.376 181.635 115.913 184.361 115.913C188.061 115.913 191.581 114.961 194.831 113.087L195.089 112.941V112.637V106.915V105.811L194.246 106.515C191.118 109.12 187.728 110.431 184.157 110.431C182.192 110.394 180.289 110 178.524 109.235C176.737 108.48 175.133 107.372 173.755 105.957C172.367 104.561 171.27 102.85 170.485 100.867C169.709 98.937 169.317 96.7982 169.317 94.5167C169.317 92.6185 169.707 90.7593 170.476 88.9907C171.255 87.1889 172.333 85.5667 173.685 84.1667C175.024 82.7796 176.63 81.6463 178.459 80.8056C180.272 79.9889 182.183 79.5704 184.157 79.5704C185.922 79.5704 187.693 79.8778 189.418 80.4778C191.131 81.0944 192.755 82.0463 194.239 83.3352L195.091 84.0722V82.9444V77.2315V76.9278L194.833 76.7815C193.307 75.9111 191.726 75.2519 190.124 74.8296Z" fill="white"/>
<path d="M232.843 80.2778C230.961 78.4204 228.711 76.9204 226.155 75.8315C223.607 74.7463 220.878 74.1944 218.035 74.1944C215.213 74.1944 212.491 74.7407 209.952 75.8093C207.43 76.8852 205.18 78.3926 203.274 80.2778C201.376 82.1407 199.855 84.3907 198.752 86.9667C197.672 89.537 197.126 92.2556 197.126 95.0537C197.126 97.8426 197.672 100.546 198.752 103.098C199.831 105.637 201.355 107.896 203.278 109.813C205.207 111.737 207.467 113.254 209.993 114.317C212.544 115.38 215.252 115.917 218.035 115.917C220.78 115.917 223.491 115.37 226.098 114.291C228.685 113.196 230.954 111.685 232.848 109.804C234.768 107.9 236.289 105.65 237.361 103.126C238.446 100.569 239.002 97.8519 239.002 95.0556C239.002 92.237 238.446 89.5019 237.357 86.9537C236.265 84.4093 234.744 82.1685 232.843 80.2778ZM218.035 110.337C215.307 110.337 212.77 109.643 210.494 108.269C208.154 106.887 206.354 105.056 204.981 102.672C203.635 100.333 202.954 97.7722 202.954 95.0556C202.954 92.9389 203.341 90.987 204.148 89.087C204.935 87.2148 206.024 85.5667 207.389 84.1741C208.778 82.7611 210.398 81.65 212.198 80.8667C214.02 80.0667 215.983 79.6667 218.035 79.6667C220.728 79.6667 223.265 80.3685 225.581 81.7444C227.87 83.0944 229.718 84.9759 231.081 87.3241C232.418 89.6796 233.098 92.2778 233.098 95.0574C233.098 97.1204 232.702 99.1111 231.931 100.97C231.168 102.807 230.07 104.461 228.657 105.883C227.268 107.285 225.63 108.391 223.798 109.165C221.952 109.944 220.009 110.337 218.035 110.337Z" fill="white"/>
<path d="M275.485 73.7241L275.168 72.1055L274.506 73.6111L261.5 103.394L248.613 73.6111L247.954 72.0907L247.635 73.7241L239.672 114.461L239.546 115.076H240.18H245.081H245.515L245.589 114.65L249.965 90.2463L261.026 115.707L261.494 116.787L261.97 115.707L273.106 90.3574L277.38 114.644L277.454 115.076H277.885H282.948H283.572L283.45 114.461L275.485 73.7241Z" fill="white"/>
<path d="M322.181 73.7241L321.865 72.1055L321.205 73.6111L308.2 103.394L295.311 73.6111L294.654 72.0907L294.333 73.7241L286.365 114.461L286.244 115.076H286.868H291.776H292.202L292.28 114.65L296.665 90.2463L307.72 115.707L308.194 116.787L308.668 115.707L319.796 90.3574L324.076 114.644L324.152 115.076H324.583H329.643H330.265L330.15 114.461L322.181 73.7241Z" fill="white"/>
<path d="M333.996 75.0315H333.483V75.5407V114.561V115.076H333.996H354.969H355.483V114.561V110.107V109.598H354.969H339.378V95.8703H354.561H355.078V95.3555V90.9037V90.3926H354.561H339.378V80.5092H354.969H355.483V79.9926V75.5407V75.0315H354.969H333.996Z" fill="white"/>
<path d="M372.546 97.9481C374.041 97.6407 375.441 97.0407 376.7 96.1648C378.198 95.1222 379.356 93.7722 380.228 92.05C381.076 90.3481 381.507 88.4704 381.507 86.4648C381.317 82.4444 379.719 79.35 376.75 77.2463C375.565 76.3833 374.094 75.787 372.385 75.4722C370.711 75.1741 368.793 75.0278 366.667 75.0278H359.661H359.15V75.5389V114.557V115.072H359.661H364.537H365.044V114.557V98.6241H366.293L377.689 114.85L377.843 115.072H378.109H383.956H384.967L384.376 114.254L372.546 97.9481ZM365.044 80.4055H366.144C368.648 80.4055 370.659 80.7167 372.12 81.3296C373.563 81.9667 374.539 82.7167 375.085 83.6296C375.656 84.5722 375.937 85.6241 375.937 86.7555C375.926 88.1148 375.674 89.2667 375.196 90.1667C374.728 91.0389 374.052 91.7093 373.185 92.1815C372.272 92.687 371.106 93.0444 369.715 93.2426C368.42 93.4352 366.894 93.5407 365.046 93.5593V80.4055H365.044Z" fill="white"/>
<path d="M411.757 74.8296C410.163 74.4074 408.261 74.1944 406.107 74.1944C404.213 74.1944 402.109 74.5463 399.867 75.2389C397.578 75.9407 395.341 77.0833 393.211 78.6315C391.037 80.1741 389.167 82.3037 387.667 84.9444C386.159 87.5963 385.267 90.8 385.035 94.487C385.03 97.4611 385.591 100.294 386.704 102.943C387.811 105.567 389.369 107.883 391.333 109.813C393.296 111.748 395.567 113.259 398.076 114.319C400.594 115.376 403.267 115.913 406.002 115.913C409.685 115.913 413.213 114.961 416.463 113.087L416.72 112.941V112.637V106.915V105.817L415.88 106.515C412.743 109.12 409.356 110.431 405.798 110.431C403.83 110.394 401.92 110 400.152 109.235C398.383 108.494 396.78 107.387 395.382 105.957C393.985 104.539 392.891 102.828 392.117 100.867C391.337 98.9148 390.946 96.7722 390.946 94.5167C390.946 92.6389 391.337 90.7815 392.113 88.9907C392.891 87.1852 393.963 85.5667 395.313 84.1667C396.643 82.7889 398.248 81.6556 400.094 80.8056C401.9 79.9889 403.811 79.5704 405.798 79.5704C407.582 79.5704 409.296 79.8685 411.046 80.4778C412.772 81.1 414.398 82.0519 415.869 83.3352L416.722 84.0722V82.9444V77.2315V76.9278L416.465 76.7759C414.931 75.9056 413.348 75.2519 411.757 74.8296Z" fill="white"/>
<path d="M421.744 75.0315H421.229V75.5407V114.561V115.076H421.744H426.618H427.133V114.561V75.5407V75.0315H426.618H421.744Z" fill="white"/>
<path d="M450.213 73.6037L449.741 72.5815L449.27 73.6037L430.635 114.343L430.302 115.076H431.1H436.391H436.724L436.857 114.774L441.168 105.307H458.372L462.689 114.774L462.826 115.076H463.152H468.437H469.239L468.907 114.343L450.213 73.6037ZM455.881 99.8204H443.655L449.743 85.8259L455.881 99.8204Z" fill="white"/>
<path d="M478.331 109.598V75.5407V75.0315H477.817H472.941H472.426V75.5407V114.561V115.076H472.941H489.668H490.179V114.561V110.107V109.598H489.668H478.331Z" fill="white"/>
<path d="M529.422 98.7481C528.644 97.187 527.581 95.9037 526.281 94.9426C525.38 94.2796 524.431 93.8 523.452 93.5222C525.8 91.8203 526.993 88.987 526.993 85.0703C526.705 81.2148 525.118 78.5518 522.274 77.1166C519.53 75.7333 516.17 75.0315 512.285 75.0315H507.411H506.896V75.5426V114.561V115.076H507.411H516.411C519.065 115.076 521.465 114.652 523.574 113.83C525.733 112.985 527.454 111.717 528.704 110.065C529.967 108.383 530.602 106.328 530.602 103.95C530.604 102.081 530.209 100.331 529.422 98.7481ZM519.693 90.8278C518.552 91.8148 516.807 92.3222 514.513 92.3222H512.796V80.4055H514.289C516.448 80.4055 518.057 80.7481 519.085 81.4148C520.117 82.0759 520.761 82.8203 521.004 83.6148C521.272 84.4833 521.404 85.4037 521.404 86.3537C521.404 88.3833 520.841 89.8463 519.693 90.8278ZM512.796 97.1833H515.954C517.543 97.1833 519.018 97.4092 520.339 97.85C521.639 98.2926 522.678 98.9907 523.509 99.987C524.306 100.961 524.687 102.22 524.687 103.861C524.413 107.781 521.635 109.704 516.202 109.704H512.796V97.1833Z" fill="white"/>
<path d="M550.492 73.6037L550.018 72.5815L549.552 73.6037L530.911 114.343L530.576 115.076H531.37H536.67H537L537.137 114.774L541.442 105.307H558.644L562.955 114.774L563.093 115.076H563.42H568.704H569.507L569.178 114.343L550.492 73.6037ZM556.163 99.8204H543.924L550.024 85.8259L556.163 99.8204Z" fill="white"/>
<path d="M602.057 75.0315H601.541V75.5407V103.191L573.135 73.2611L572.254 72.3315V73.6167V114.561V115.076H572.763H577.563H578.078V114.561V86.6981L606.676 116.511L607.559 117.441V116.156V75.5407V75.0315H607.046H602.057Z" fill="white"/>
<path d="M641.459 114.226L623.887 93.0611L641.104 75.9111L641.98 75.0315H640.733H634.363H634.152L633.994 75.187L618.32 91.1259V75.5407V75.0315H617.807H612.931H612.417V75.5407V114.561V115.076H612.931H617.807H618.32V114.561V98.5259L619.689 97.1166L634.074 114.885L634.222 115.076H634.465H641.061H642.159L641.459 114.226Z" fill="white"/>
</g>
<defs>
<clipPath id="clip0_1_86">
<rect width="666.667" height="200" fill="white" transform="translate(0.333374 0.5)"/>
</clipPath>
</defs>
</svg>
