<?xml version="1.0" encoding="UTF-8"?>
<svg width="24px" height="22px" viewBox="0 0 24 22" version="1.1" xmlns="http://www.w3.org/2000/svg" xmlns:xlink="http://www.w3.org/1999/xlink">
    <!-- Generator: Sketch 58 (84663) - https://sketch.com -->
    <title>Combined Shape</title>
    <desc>Created with Sketch.</desc>
    <g id="Symbols" stroke="none" stroke-width="1" fill="none" fill-rule="evenodd">
        <g id="Header" transform="translate(-780.000000, -63.000000)" fill="#FFFFFF" stroke="#FFFFFF" stroke-width="0.5">
            <g id="Group">
                <g transform="translate(760.000000, 49.000000)">
                    <path d="M42.7742326,15.0042791 C43.0724186,15.0042791 43.314093,15.246093 43.314093,15.5442326 L43.314093,15.5442326 L43.314093,34.4443721 C43.314093,34.7424186 43.0723721,34.984186 42.7742326,34.984186 L42.7742326,34.984186 L27.0296744,34.984186 C26.7314884,34.984186 26.4897674,34.7424186 26.4897674,34.4443721 C26.4897674,34.146 26.7314884,33.9043256 27.0296744,33.9043256 L27.0296744,33.9043256 L42.2342791,33.9043256 L42.2342791,16.084186 L27.0296744,16.084186 C26.7314884,16.084186 26.4897674,15.8424651 26.4897674,15.544186 C26.4897674,15.2460465 26.7314884,15.0042791 27.0296744,15.0042791 L27.0296744,15.0042791 Z M29.2229302,21.6151628 C29.4338605,21.404093 29.7756279,21.404093 29.9865116,21.6151628 L29.9865116,21.6151628 L33.3162326,24.9453023 C33.5272093,25.156093 33.5272093,25.4979535 33.3162326,25.7088837 L33.3162326,25.7088837 L29.9865116,29.0385581 C29.8810233,29.143907 29.7429302,29.1966977 29.6048372,29.1966977 C29.4666512,29.1966977 29.3284186,29.144 29.2229302,29.0385581 C29.012,28.8275814 29.012,28.4858605 29.2229302,28.2748837 L29.2229302,28.2748837 L31.6308837,25.8670233 L21.54,25.8670233 C21.241814,25.8670233 21,25.6252093 21,25.3269767 C21,25.0288372 21.241814,24.7869767 21.54,24.7870233 L21.54,24.7870233 L31.6308837,24.7870233 L29.2229302,22.3786047 C29.012,22.1677674 29.012,21.8257674 29.2229302,21.6151628 Z" id="Combined-Shape"></path>
                </g>
            </g>
        </g>
    </g>
</svg>